<svg xmlns="http://www.w3.org/2000/svg" xmlns:xlink="http://www.w3.org/1999/xlink" width="100" zoomAndPan="magnify" viewBox="0 0 75 37.5" height="50" preserveAspectRatio="xMidYMid meet" version="1.0"><defs><g/><clipPath id="443557f75a"><path d="M 27.242188 5 L 36 5 L 36 15 L 27.242188 15 Z M 27.242188 5 " clip-rule="nonzero"/></clipPath><clipPath id="80c803aa5d"><path d="M 32 2.707031 L 43 2.707031 L 43 6 L 32 6 Z M 32 2.707031 " clip-rule="nonzero"/></clipPath><clipPath id="9b188616a2"><path d="M 42 3 L 49.445312 3 L 49.445312 12 L 42 12 Z M 42 3 " clip-rule="nonzero"/></clipPath><clipPath id="a56aee399f"><path d="M 42 10 L 49.445312 10 L 49.445312 22 L 42 22 Z M 42 10 " clip-rule="nonzero"/></clipPath><clipPath id="ac27ed3027"><path d="M 41.5625 20.730469 L 44 20.730469 L 44 23.335938 L 41.5625 23.335938 Z M 41.5625 20.730469 " clip-rule="nonzero"/></clipPath></defs><g clip-path="url(#443557f75a)"><path fill="#7ed957" d="M 27.96875 8.285156 C 29.128906 7 30.742188 6.070312 32.324219 5.214844 L 32.402344 5.171875 L 32.578125 5.078125 C 33.683594 5.304688 34.714844 5.613281 35.65625 6.007812 C 35.519531 7.679688 35.382812 9.347656 35.246094 11.019531 L 35.238281 11.078125 C 33.6875 12.015625 32.117188 12.988281 30.691406 14.105469 C 29.488281 13.652344 28.328125 13.125 27.242188 12.550781 L 27.242188 12.546875 C 27.304688 11.128906 27.496094 9.839844 27.824219 8.699219 " fill-opacity="1" fill-rule="evenodd"/></g><g clip-path="url(#80c803aa5d)"><path fill="#00bf63" d="M 42.277344 3.5 L 41.929688 4.355469 C 41.796875 4.347656 41.65625 4.34375 41.511719 4.34375 C 40.070312 4.34375 38.078125 4.640625 36.183594 5.136719 L 35.941406 5.199219 C 35.050781 4.804688 33.921875 4.480469 32.996094 4.308594 C 33.15625 4.027344 33.382812 3.769531 33.679688 3.511719 C 35.050781 3.007812 36.496094 2.75 37.96875 2.75 L 37.992188 2.75 C 39.453125 2.75 40.886719 3 42.253906 3.492188 L 42.277344 3.5 " fill-opacity="1" fill-rule="evenodd"/></g><g clip-path="url(#9b188616a2)"><path fill="#00bf63" d="M 49.304688 9.859375 C 49.304688 10.363281 49.246094 10.796875 49.132812 11.167969 C 49.097656 11.140625 49.058594 11.117188 49.023438 11.089844 C 49.003906 11.078125 48.984375 11.0625 48.964844 11.050781 C 48.914062 11.019531 48.863281 10.984375 48.816406 10.953125 C 48.023438 10.429688 47.171875 9.96875 46.277344 9.582031 L 46.117188 9.304688 C 45.136719 7.617188 43.988281 6.054688 42.691406 4.667969 L 43.109375 3.835938 C 43.242188 3.894531 43.378906 3.957031 43.511719 4.023438 L 43.550781 4.042969 C 44.765625 4.640625 45.875 5.4375 46.84375 6.40625 C 47.863281 7.417969 48.6875 8.578125 49.304688 9.859375 " fill-opacity="1" fill-rule="evenodd"/></g><g clip-path="url(#a56aee399f)"><path fill="#7ed957" d="M 49.542969 17.183594 L 49.542969 17.203125 C 49.542969 17.316406 49.539062 17.429688 49.53125 17.546875 L 49.527344 17.695312 C 48.789062 18.894531 47.957031 20.015625 47.039062 21.035156 C 45.65625 20.574219 44.320312 20.035156 43.066406 19.433594 C 42.960938 18.007812 42.671875 16.140625 42.402344 14.78125 C 42.363281 14.539062 42.320312 14.308594 42.277344 14.09375 L 42.289062 14.082031 C 43.570312 12.878906 44.796875 11.582031 45.933594 10.222656 C 46.996094 10.746094 47.988281 11.351562 48.886719 12.039062 L 48.996094 12.375 L 49 12.398438 C 49.410156 13.75 49.59375 15.359375 49.542969 17.183594 " fill-opacity="1" fill-rule="evenodd"/></g><path fill="#7ed957" d="M 41.8125 19.746094 C 41.804688 19.75 41.800781 19.753906 41.796875 19.757812 L 41.761719 19.785156 C 40.539062 20.835938 39.167969 21.753906 37.632812 22.746094 L 37.425781 22.882812 L 32.378906 20.816406 C 32.378906 20.804688 32.375 20.792969 32.371094 20.78125 L 32.257812 20.242188 L 32.25 20.242188 C 31.894531 18.570312 31.652344 16.757812 31.535156 14.847656 L 31.535156 14.816406 L 35.667969 11.703125 L 35.988281 11.460938 C 37.816406 12.070312 39.542969 12.796875 41.117188 13.613281 C 41.140625 13.746094 41.160156 13.882812 41.175781 14.015625 C 41.441406 15.863281 41.65625 17.785156 41.8125 19.746094 " fill-opacity="1" fill-rule="evenodd"/><path fill="#7ed957" d="M 30.308594 16.664062 C 30.308594 16.664062 30.308594 16.664062 30.308594 16.667969 L 30.300781 16.671875 C 30.03125 16.902344 29.734375 17.101562 29.398438 17.320312 L 29.355469 17.347656 L 28.253906 16.898438 C 28.253906 16.894531 28.253906 16.894531 28.253906 16.890625 L 28.226562 16.773438 C 28.148438 16.410156 28.09375 16.015625 28.070312 15.597656 L 28.070312 15.589844 L 28.96875 14.910156 L 29.039062 14.859375 C 29.441406 14.992188 29.816406 15.148438 30.160156 15.328125 C 30.164062 15.355469 30.167969 15.386719 30.171875 15.414062 C 30.230469 15.816406 30.277344 16.238281 30.308594 16.664062 " fill-opacity="1" fill-rule="evenodd"/><g clip-path="url(#ac27ed3027)"><path fill="#7ed957" d="M 43.988281 22.648438 C 43.988281 22.652344 43.984375 22.652344 43.984375 22.652344 L 43.976562 22.660156 C 43.710938 22.886719 43.410156 23.089844 43.078125 23.304688 L 43.03125 23.335938 L 41.933594 22.882812 C 41.929688 22.882812 41.929688 22.878906 41.929688 22.875 L 41.90625 22.757812 L 41.902344 22.757812 C 41.824219 22.394531 41.773438 22 41.746094 21.582031 L 41.746094 21.574219 L 42.648438 20.898438 L 42.71875 20.84375 C 43.117188 20.976562 43.492188 21.136719 43.835938 21.3125 C 43.839844 21.339844 43.84375 21.371094 43.851562 21.402344 C 43.90625 21.804688 43.953125 22.222656 43.988281 22.648438 " fill-opacity="1" fill-rule="evenodd"/></g><path fill="#00bf63" d="M 45.605469 9.570312 C 44.445312 10.964844 43.210938 12.277344 41.894531 13.515625 L 41.785156 13.453125 C 41.714844 13.417969 41.648438 13.382812 41.542969 13.328125 C 41.535156 13.320312 41.523438 13.3125 41.507812 13.308594 C 39.800781 12.410156 37.957031 11.640625 35.996094 10.996094 C 36.136719 9.28125 36.277344 7.566406 36.417969 5.851562 L 36.425781 5.714844 C 38.429688 5.195312 40.6875 4.871094 42.097656 4.964844 L 42.1875 4.96875 C 43.484375 6.347656 44.621094 7.878906 45.605469 9.570312 " fill-opacity="1" fill-rule="evenodd"/><g fill="#7ed957" fill-opacity="1"><g transform="translate(8.551268, 28.972311)"><g><path d="M 1.457031 0 L 1.457031 -2.382812 L 5.027344 -2.382812 L 5.027344 -3.339844 L 1.457031 -3.339844 L 1.457031 -4.582031 L 5.265625 -4.582031 L 5.265625 -5.597656 L 0.378906 -5.597656 L 0.378906 0 Z M 1.457031 0 "/></g></g></g><g fill="#7ed957" fill-opacity="1"><g transform="translate(14.488314, 28.972311)"><g><path d="M 3.238281 0.0898438 C 4.964844 0.0898438 6.101562 -0.648438 6.101562 -2.304688 L 6.101562 -5.597656 L 5.019531 -5.597656 L 5.019531 -2.554688 C 5.019531 -1.378906 4.347656 -0.925781 3.238281 -0.925781 C 2.132812 -0.925781 1.464844 -1.378906 1.464844 -2.554688 L 1.464844 -5.597656 L 0.371094 -5.597656 L 0.371094 -2.304688 C 0.371094 -0.648438 1.519531 0.0898438 3.238281 0.0898438 Z M 3.238281 0.0898438 "/></g></g></g><g fill="#7ed957" fill-opacity="1"><g transform="translate(21.384953, 28.972311)"><g><path d="M 5.175781 -1.070312 L 1.941406 -5.597656 L 0.378906 -5.597656 L 0.378906 0 L 1.457031 0 L 1.457031 -4.667969 L 4.757812 0 L 6.269531 0 L 6.269531 -5.597656 L 5.175781 -5.597656 Z M 5.175781 -1.070312 "/></g></g></g><g fill="#7ed957" fill-opacity="1"><g transform="translate(28.440371, 28.972311)"><g><path d="M 3.210938 0 C 5.296875 0 6.378906 -0.972656 6.378906 -2.824219 L 6.378906 -2.835938 C 6.378906 -4.640625 5.414062 -5.597656 3.210938 -5.597656 L 0.371094 -5.597656 L 0.371094 0 Z M 1.464844 -4.582031 L 3.25 -4.582031 C 4.578125 -4.582031 5.265625 -3.96875 5.265625 -2.835938 L 5.265625 -2.824219 C 5.265625 -1.648438 4.5625 -1.015625 3.25 -1.015625 L 1.464844 -1.015625 Z M 1.464844 -4.582031 "/></g></g></g><g fill="#7ed957" fill-opacity="1"><g transform="translate(35.516501, 28.972311)"><g><path d="M 7.035156 0 L 4.191406 -5.597656 L 2.925781 -5.597656 L 0.0976562 0 L 1.257812 0 L 1.960938 -1.421875 L 5.164062 -1.421875 L 5.875 0 Z M 4.707031 -2.355469 L 2.421875 -2.355469 L 3.554688 -4.660156 Z M 4.707031 -2.355469 "/></g></g></g><g fill="#7ed957" fill-opacity="1"><g transform="translate(43.055168, 28.972311)"><g><path d="M 3.625 0.0898438 C 4.445312 0.0898438 5.363281 -0.117188 6.027344 -0.433594 L 5.5625 -1.367188 C 4.96875 -1.070312 4.257812 -0.925781 3.625 -0.925781 C 2.277344 -0.925781 1.386719 -1.644531 1.386719 -2.773438 L 1.386719 -2.789062 C 1.386719 -3.960938 2.238281 -4.679688 3.632812 -4.679688 C 4.335938 -4.679688 5.027344 -4.5 5.5625 -4.230469 L 6.027344 -5.164062 C 5.335938 -5.503906 4.410156 -5.695312 3.632812 -5.695312 C 1.566406 -5.695312 0.28125 -4.535156 0.28125 -2.789062 L 0.28125 -2.773438 C 0.28125 -1.050781 1.582031 0.0898438 3.625 0.0898438 Z M 3.625 0.0898438 "/></g></g></g><g fill="#7ed957" fill-opacity="1"><g transform="translate(49.703278, 28.972311)"><g><path d="M 1.464844 0 L 1.464844 -5.597656 L 0.371094 -5.597656 L 0.371094 0 Z M 1.464844 0 "/></g></g></g><g fill="#7ed957" fill-opacity="1"><g transform="translate(51.953833, 28.972311)"><g><path d="M 3.992188 -6.007812 L 5.265625 -7.046875 L 3.90625 -7.046875 L 3.210938 -6.007812 Z M 3.714844 0.0898438 C 5.839844 0.0898438 7.152344 -1.070312 7.152344 -2.804688 L 7.152344 -2.808594 C 7.152344 -4.542969 5.839844 -5.695312 3.714844 -5.695312 C 1.59375 -5.695312 0.28125 -4.542969 0.28125 -2.808594 L 0.28125 -2.804688 C 0.28125 -1.070312 1.59375 0.0898438 3.714844 0.0898438 Z M 3.714844 -0.925781 C 2.300781 -0.925781 1.386719 -1.65625 1.386719 -2.796875 L 1.386719 -2.804688 C 1.386719 -3.960938 2.257812 -4.679688 3.714844 -4.679688 C 5.128906 -4.679688 6.039062 -3.941406 6.039062 -2.804688 L 6.039062 -2.796875 C 6.039062 -1.65625 5.136719 -0.925781 3.714844 -0.925781 Z M 3.714844 -0.925781 "/></g></g></g><g fill="#7ed957" fill-opacity="1"><g transform="translate(59.803159, 28.972311)"><g><path d="M 5.175781 -1.070312 L 1.941406 -5.597656 L 0.378906 -5.597656 L 0.378906 0 L 1.457031 0 L 1.457031 -4.667969 L 4.757812 0 L 6.269531 0 L 6.269531 -5.597656 L 5.175781 -5.597656 Z M 5.175781 -1.070312 "/></g></g></g><g fill="#7ed957" fill-opacity="1"><g transform="translate(8.060829, 33.387559)"><g><path d="M 0.691406 0.03125 C 1.246094 0.03125 1.5 -0.15625 1.5 -0.703125 L 1.5 -2.066406 L 1.097656 -2.066406 L 1.097656 -0.726562 C 1.097656 -0.433594 0.964844 -0.351562 0.671875 -0.351562 C 0.523438 -0.351562 0.324219 -0.394531 0.171875 -0.457031 L 0.00390625 -0.0976562 C 0.191406 -0.0195312 0.457031 0.03125 0.691406 0.03125 Z M 0.691406 0.03125 "/></g></g></g><g fill="#7ed957" fill-opacity="1"><g transform="translate(10.849665, 33.387559)"><g><path d="M 1.195312 0.03125 C 1.832031 0.03125 2.25 -0.238281 2.25 -0.851562 L 2.25 -2.066406 L 1.851562 -2.066406 L 1.851562 -0.941406 C 1.851562 -0.507812 1.605469 -0.339844 1.195312 -0.339844 C 0.785156 -0.339844 0.539062 -0.507812 0.539062 -0.941406 L 0.539062 -2.066406 L 0.136719 -2.066406 L 0.136719 -0.851562 C 0.136719 -0.238281 0.558594 0.03125 1.195312 0.03125 Z M 1.195312 0.03125 "/></g></g></g><g fill="#7ed957" fill-opacity="1"><g transform="translate(14.392096, 33.387559)"><g><path d="M 2.59375 0 L 1.546875 -2.066406 L 1.078125 -2.066406 L 0.0351562 0 L 0.464844 0 L 0.722656 -0.523438 L 1.90625 -0.523438 L 2.167969 0 Z M 1.738281 -0.867188 L 0.894531 -0.867188 L 1.3125 -1.71875 Z M 1.738281 -0.867188 "/></g></g></g><g fill="#7ed957" fill-opacity="1"><g transform="translate(18.171298, 33.387559)"><g><path d="M 1.910156 -0.394531 L 0.714844 -2.066406 L 0.140625 -2.066406 L 0.140625 0 L 0.539062 0 L 0.539062 -1.722656 L 1.753906 0 L 2.3125 0 L 2.3125 -2.066406 L 1.910156 -2.066406 Z M 1.910156 -0.394531 "/></g></g></g><g fill="#7ed957" fill-opacity="1"><g transform="translate(21.772285, 33.387559)"><g/></g></g><g fill="#7ed957" fill-opacity="1"><g transform="translate(23.481647, 33.387559)"><g><path d="M 1.316406 -0.816406 L 1.90625 -0.816406 L 1.90625 -0.429688 C 1.71875 -0.375 1.503906 -0.339844 1.347656 -0.339844 C 0.824219 -0.339844 0.511719 -0.589844 0.511719 -1.023438 L 0.511719 -1.027344 C 0.511719 -1.472656 0.835938 -1.726562 1.398438 -1.726562 C 1.671875 -1.726562 1.941406 -1.660156 2.132812 -1.558594 L 2.300781 -1.90625 C 2.042969 -2.03125 1.6875 -2.101562 1.375 -2.101562 C 0.570312 -2.101562 0.105469 -1.695312 0.105469 -1.027344 L 0.105469 -1.023438 C 0.105469 -0.371094 0.554688 0.03125 1.328125 0.03125 C 1.617188 0.03125 2.054688 -0.0429688 2.308594 -0.15625 L 2.308594 -1.136719 L 1.316406 -1.136719 Z M 1.316406 -0.816406 "/></g></g></g><g fill="#7ed957" fill-opacity="1"><g transform="translate(27.087726, 33.387559)"><g><path d="M 1.371094 0.03125 C 2.15625 0.03125 2.636719 -0.394531 2.636719 -1.035156 C 2.636719 -1.675781 2.15625 -2.101562 1.371094 -2.101562 C 0.589844 -2.101562 0.105469 -1.675781 0.105469 -1.035156 C 0.105469 -0.394531 0.589844 0.03125 1.371094 0.03125 Z M 1.371094 -0.339844 C 0.847656 -0.339844 0.511719 -0.609375 0.511719 -1.03125 L 0.511719 -1.035156 C 0.511719 -1.460938 0.832031 -1.726562 1.371094 -1.726562 C 1.890625 -1.726562 2.226562 -1.453125 2.226562 -1.035156 L 2.226562 -1.03125 C 2.226562 -0.609375 1.894531 -0.339844 1.371094 -0.339844 Z M 1.371094 -0.339844 "/></g></g></g><g fill="#7ed957" fill-opacity="1"><g transform="translate(30.981494, 33.387559)"><g><path d="M 1.910156 -0.394531 L 0.714844 -2.066406 L 0.140625 -2.066406 L 0.140625 0 L 0.539062 0 L 0.539062 -1.722656 L 1.753906 0 L 2.3125 0 L 2.3125 -2.066406 L 1.910156 -2.066406 Z M 1.910156 -0.394531 "/></g></g></g><g fill="#7ed957" fill-opacity="1"><g transform="translate(34.58248, 33.387559)"><g><path d="M 2.023438 -1.691406 L 2.023438 -2.066406 L 0.0859375 -2.066406 L 0.0859375 -1.691406 L 1.464844 -1.691406 L 0.0859375 -0.375 L 0.0859375 0 L 2.03125 0 L 2.03125 -0.375 L 0.632812 -0.375 Z M 2.023438 -1.691406 "/></g></g></g><g fill="#7ed957" fill-opacity="1"><g transform="translate(37.852496, 33.387559)"><g><path d="M 2.59375 0 L 1.546875 -2.066406 L 1.078125 -2.066406 L 0.0351562 0 L 0.464844 0 L 0.722656 -0.523438 L 1.90625 -0.523438 L 2.167969 0 Z M 1.738281 -0.867188 L 0.894531 -0.867188 L 1.3125 -1.71875 Z M 1.738281 -0.867188 "/></g></g></g><g fill="#7ed957" fill-opacity="1"><g transform="translate(41.631697, 33.387559)"><g><path d="M 1.929688 0 L 1.929688 -0.375 L 0.539062 -0.375 L 0.539062 -2.066406 L 0.136719 -2.066406 L 0.136719 0 Z M 1.929688 0 "/></g></g></g><g fill="#7ed957" fill-opacity="1"><g transform="translate(44.764232, 33.387559)"><g><path d="M 1.371094 0.03125 C 2.15625 0.03125 2.636719 -0.394531 2.636719 -1.035156 C 2.636719 -1.675781 2.15625 -2.101562 1.371094 -2.101562 C 0.589844 -2.101562 0.105469 -1.675781 0.105469 -1.035156 C 0.105469 -0.394531 0.589844 0.03125 1.371094 0.03125 Z M 1.371094 -0.339844 C 0.847656 -0.339844 0.511719 -0.609375 0.511719 -1.03125 L 0.511719 -1.035156 C 0.511719 -1.460938 0.832031 -1.726562 1.371094 -1.726562 C 1.890625 -1.726562 2.226562 -1.453125 2.226562 -1.035156 L 2.226562 -1.03125 C 2.226562 -0.609375 1.894531 -0.339844 1.371094 -0.339844 Z M 1.371094 -0.339844 "/></g></g></g><g fill="#7ed957" fill-opacity="1"><g transform="translate(48.657999, 33.387559)"><g/></g></g><g fill="#7ed957" fill-opacity="1"><g transform="translate(50.367359, 33.387559)"><g><path d="M 1.929688 0 L 1.929688 -0.375 L 0.539062 -0.375 L 0.539062 -2.066406 L 0.136719 -2.066406 L 0.136719 0 Z M 1.929688 0 "/></g></g></g><g fill="#7ed957" fill-opacity="1"><g transform="translate(53.499893, 33.387559)"><g><path d="M 1.371094 0.03125 C 2.15625 0.03125 2.636719 -0.394531 2.636719 -1.035156 C 2.636719 -1.675781 2.15625 -2.101562 1.371094 -2.101562 C 0.589844 -2.101562 0.105469 -1.675781 0.105469 -1.035156 C 0.105469 -0.394531 0.589844 0.03125 1.371094 0.03125 Z M 1.371094 -0.339844 C 0.847656 -0.339844 0.511719 -0.609375 0.511719 -1.03125 L 0.511719 -1.035156 C 0.511719 -1.460938 0.832031 -1.726562 1.371094 -1.726562 C 1.890625 -1.726562 2.226562 -1.453125 2.226562 -1.035156 L 2.226562 -1.03125 C 2.226562 -0.609375 1.894531 -0.339844 1.371094 -0.339844 Z M 1.371094 -0.339844 "/></g></g></g><g fill="#7ed957" fill-opacity="1"><g transform="translate(57.393661, 33.387559)"><g><path d="M 1.75 -0.808594 C 2 -0.910156 2.148438 -1.128906 2.148438 -1.417969 L 2.148438 -1.421875 C 2.148438 -1.816406 1.847656 -2.066406 1.394531 -2.066406 L 0.140625 -2.066406 L 0.140625 0 L 0.539062 0 L 0.539062 -0.742188 L 1.351562 -0.742188 L 1.828125 0 L 2.277344 0 Z M 1.347656 -1.695312 C 1.582031 -1.695312 1.738281 -1.605469 1.738281 -1.394531 C 1.738281 -1.1875 1.582031 -1.085938 1.347656 -1.085938 L 0.539062 -1.085938 L 0.539062 -1.695312 Z M 1.347656 -1.695312 "/></g></g></g><g fill="#7ed957" fill-opacity="1"><g transform="translate(60.857169, 33.387559)"><g><path d="M 1.335938 0.03125 C 1.640625 0.03125 1.980469 -0.0429688 2.222656 -0.160156 L 2.050781 -0.503906 C 1.832031 -0.394531 1.570312 -0.339844 1.335938 -0.339844 C 0.839844 -0.339844 0.511719 -0.605469 0.511719 -1.023438 L 0.511719 -1.027344 C 0.511719 -1.460938 0.824219 -1.726562 1.339844 -1.726562 C 1.597656 -1.726562 1.855469 -1.660156 2.050781 -1.5625 L 2.222656 -1.90625 C 1.96875 -2.03125 1.628906 -2.101562 1.339844 -2.101562 C 0.578125 -2.101562 0.105469 -1.671875 0.105469 -1.027344 L 0.105469 -1.023438 C 0.105469 -0.386719 0.582031 0.03125 1.335938 0.03125 Z M 1.335938 0.03125 "/></g></g></g><g fill="#7ed957" fill-opacity="1"><g transform="translate(64.307945, 33.387559)"><g><path d="M 2.59375 0 L 1.546875 -2.066406 L 1.078125 -2.066406 L 0.0351562 0 L 0.464844 0 L 0.722656 -0.523438 L 1.90625 -0.523438 L 2.167969 0 Z M 1.738281 -0.867188 L 0.894531 -0.867188 L 1.3125 -1.71875 Z M 1.738281 -0.867188 "/></g></g></g></svg>